<?xml version="1.0" standalone="no"?>
<!DOCTYPE svg PUBLIC "-//W3C//DTD SVG 20010904//EN"
 "http://www.w3.org/TR/2001/REC-SVG-20010904/DTD/svg10.dtd">
<svg version="1.0" xmlns="http://www.w3.org/2000/svg"
 width="512.000000pt" height="512.000000pt" viewBox="0 0 512.000000 512.000000"
 preserveAspectRatio="xMidYMid meet">
<metadata>
Created by potrace 1.14, written by Peter Selinger 2001-2017
</metadata>
<g transform="translate(0.000000,512.000000) scale(0.100000,-0.100000)"
fill="#000000" stroke="none">
<path d="M1015 5110 c-89 -10 -245 -51 -339 -90 -122 -51 -234 -126 -326 -220
-95 -96 -150 -182 -183 -285 l-22 -70 0 -1985 0 -1985 22 -71 c28 -88 104
-206 169 -262 27 -23 78 -57 114 -76 134 -70 31 -66 1828 -66 1579 0 1621 0
1696 20 198 50 344 189 412 390 18 53 19 122 19 1720 l0 1665 -24 74 c-48 144
-157 272 -287 337 -127 62 -7 58 -1739 64 -1561 5 -1580 5 -1615 25 -47 27
-90 112 -90 176 0 27 9 72 20 102 30 81 79 130 173 177 161 79 35 74 1777 78
1146 2 1571 0 1615 -8 173 -34 336 -162 406 -319 51 -114 49 -44 49 -1869 l0
-1703 31 18 c90 53 191 186 230 305 l24 73 0 1580 0 1580 -23 79 c-70 241
-241 431 -459 507 -144 51 -90 49 -1806 48 -881 -1 -1633 -5 -1672 -9z"/>
</g>
</svg>
